#!OML:ASF X:\2005_08_12_Meinard\c3d\meinard.ASF
:FULLY-SPECIFIED
:DEGREES
1553
root 4.38361 16.5174 0.127759 -17.9777 -70.8783 -3.33018
lowerback 35.9428 1.4502 -2.14833
upperback 8.54944 0.184054 -0.250683
thorax -8.46213 -0.255321 0.847376
lowerneck -7.45307 -8.02775 -9.65982
upperneck -1.00006 -10.2587 12.3606
head 2.07714 -4.92947 4.79057
rclavicle 3.27001e-014 -1.90833e-014
rhumerus -25.6129 -1.24635 -88.0799
rradius 27.5196
rwrist 26.207
rhand -7.25545 -4.80626
rfingers 7.12502
rthumb 18.6251 -33.9346
lclavicle 3.27001e-014 -1.90833e-014
lhumerus -31.2324 39.2679 69.1626
lradius 30.1803
lwrist -231.943
lhand -12.2212 4.62946
lfingers 7.12502
lthumb 13.8438 34.1488
rfemur -169.395 -176.128 198.822
rtibia 37.3729
rfoot 156.266 161.015
rtoes 5.05687
lfemur -182.938 182.004 -194.594
ltibia 43.368
lfoot -12.5543 34.0956
ltoes 10.0557
1554
root 4.40656 16.5185 0.0932806 -17.5272 -71.2333 -3.80777
lowerback 35.9015 1.34672 -1.89255
upperback 8.54406 0.145682 -0.245335
thorax -8.45252 -0.275996 0.733517
lowerneck -7.45488 -8.02686 -9.78327
upperneck -0.942647 -10.253 12.42
head 2.1037 -4.92425 4.82708
rclavicle 4.08502e-014 -1.90833e-014
rhumerus -25.1322 -1.95418 -87.7725
rradius 26.1469
rwrist 27.4524
rhand -7.30745 -4.9357
rfingers 7.12502
rthumb 18.5751 -34.0688
lclavicle 4.08502e-014 -1.90833e-014
lhumerus -31.1935 39.7057 69.1418
lradius 30.0914
lwrist -232.338
lhand -12.1297 4.67833
lfingers 7.12502
lthumb 13.932 34.1916
rfemur -169.53 -175.941 198.993
rtibia 37.2621
rfoot 156.426 161.499
rtoes 4.75961
lfemur -183.052 182.185 -194.382
ltibia 43.5149
lfoot -12.6488 34.4898
ltoes 9.74119
1555
root 4.42994 16.518 0.0597726 -17.0796 -71.5835 -4.30339
lowerback 35.8658 1.24121 -1.64571
upperback 8.55586 0.099841 -0.236102
thorax -8.42576 -0.301232 0.631197
lowerneck -7.48228 -8.01512 -9.92635
upperneck -0.883479 -10.2304 12.5079
head 2.13584 -4.90944 4.87567
rclavicle -5.12864e-014 2.66371e-014
rhumerus -24.6384 -2.89889 -87.3979
rradius 24.7875
rwrist 28.9151
rhand -7.35621 -5.02049
rfingers 7.12502
rthumb 18.5282 -34.1581
lclavicle -5.12864e-014 2.66371e-014
lhumerus -31.1265 40.192 69.1301
lradius 30.0013
lwrist -232.812
lhand -12.0782 4.78332
lfingers 7.12502
lthumb 13.9817 34.2932
rfemur -169.644 -175.778 199.177
rtibia 37.1587
rfoot 156.597 161.94
rtoes 4.40142
lfemur -183.145 182.404 -194.19
ltibia 43.675
lfoot -12.7928 34.8849
ltoes 9.34963
1556
root 4.45257 16.5182 0.0278198 -16.5856 -71.9363 -4.83795
lowerback 35.8098 1.13357 -1.39032
upperback 8.57458 0.0549242 -0.222534
thorax -8.38417 -0.326271 0.528493
lowerneck -7.53682 -8.00304 -10.0961
upperneck -0.82399 -10.204 12.6189
head 2.17476 -4.89146 4.93482
rclavicle -4.96962e-015 -3.18055e-015
rhumerus -24.1651 -4.05267 -86.9639
rradius 23.4926
rwrist 30.5673
rhand -7.36666 -5.1364
rfingers 7.12502
rthumb 18.5182 -34.275
lclavicle -4.96962e-015 -3.18055e-015
lhumerus -31.0313 40.6699 69.1665
lradius 29.9113
lwrist -233.306
lhand -11.9613 4.88353
lfingers 7.12502
lthumb 14.0943 34.3856
rfemur -169.772 -175.622 199.366
rtibia 37.0722
rfoot 156.761 162.373
rtoes 4.16684
lfemur -183.238 182.57 -193.995
ltibia 43.8408
lfoot -12.9262 35.2159
ltoes 9.2378
1557
root 4.47607 16.5176 -0.00302815 -16.1519 -72.2743 -5.33358
lowerback 35.7772 1.02972 -1.15034
upperback 8.59959 0.00649338 -0.215358
thorax -8.34406 -0.353249 0.428341
lowerneck -7.59289 -7.98436 -10.1746
upperneck -0.772057 -10.1733 12.6643
head 2.20247 -4.87272 4.96027
rclavicle 4.2043e-014 -1.98785e-014
rhumerus -23.7096 -5.42929 -86.4765
rradius 22.2408
rwrist 32.4208
rhand -7.38161 -5.20678
rfingers 7.12502
rthumb 18.5038 -34.3467
lclavicle 4.2043e-014 -1.98785e-014
lhumerus -30.9217 41.1358 69.2096
lradius 29.8286
lwrist -233.798
lhand -11.9182 4.99062
lfingers 7.12502
lthumb 14.1358 34.4897
rfemur -169.881 -175.522 199.564
rtibia 37.0056
rfoot 156.937 162.733
rtoes 3.91631
lfemur -183.305 182.741 -193.838
ltibia 44.0134
lfoot -13.0834 35.4578
ltoes 9.2395
1558
root 4.49856 16.5165 -0.0325353 -15.7958 -72.6176 -5.762
lowerback 35.7579 0.94065 -0.953169
upperback 8.62323 -0.0383947 -0.197001
thorax -8.3104 -0.378561 0.361182
lowerneck -7.70324 -7.96226 -10.3107
upperneck -0.653637 -10.1346 12.7451
head 2.26272 -4.84635 5.00302
rclavicle 3.66758e-014 -4.37326e-015
rhumerus -23.2976 -6.96531 -85.9091
rradius 21.0274
rwrist 34.4458
rhand -7.43528 -5.25014
rfingers 7.12502
rthumb 18.4521 -34.395
lclavicle 3.66758e-014 -4.37326e-015
lhumerus -30.8485 41.7397 69.2284
lradius 29.7337
lwrist -234.417
lhand -11.8484 5.12717
lfingers 7.12502
lthumb 14.2031 34.6216
rfemur -169.98 -175.429 199.726
rtibia 36.9577
rfoot 157.096 163.109
rtoes 3.65538
lfemur -183.338 182.881 -193.719
ltibia 44.1887
lfoot -13.3182 35.5503
ltoes 9.29647
1559
root 4.52167 16.5147 -0.0609655 -15.3985 -72.9635 -6.26102
lowerback 35.7677 0.850401 -0.733385
upperback 8.65632 -0.0800614 -0.188134
thorax -8.2769 -0.403094 0.270876
lowerneck -7.83781 -7.93546 -10.3383
upperneck -0.544465 -10.0943 12.7636
head 2.31463 -4.81989 5.00933
rclavicle 2.99171e-014 -2.66371e-014
rhumerus -22.8791 -8.86084 -85.2851
rradius 19.8058
rwrist 36.7609
rhand -7.51756 -5.24921
rfingers 7.12502
rthumb 18.373 -34.4015
lclavicle 2.99171e-014 -2.66371e-014
lhumerus -30.7252 42.2631 69.2852
lradius 29.6495
lwrist -234.975
lhand -11.8202 5.23435
lfingers 7.12502
lthumb 14.2303 34.7269
rfemur -170.056 -175.385 199.932
rtibia 36.9253
rfoot 157.262 163.405
rtoes 3.44539
lfemur -183.334 183.001 -193.593
ltibia 44.3699
lfoot -13.6541 35.4563
ltoes 9.10652
1560
root 4.54381 16.5126 -0.0881537 -15.0584 -73.3078 -6.72297
lowerback 35.7883 0.769953 -0.544257
upperback 8.69279 -0.121082 -0.177142
thorax -8.24358 -0.427468 0.198736
lowerneck -7.97426 -7.89685 -10.3418
upperneck -0.425751 -10.0408 12.7802
head 2.36687 -4.78673 5.01217
rclavicle -1.86858e-014 1.59028e-015
rhumerus -22.5315 -10.8396 -84.6174
rradius 18.6743
rwrist 39.1695
rhand -7.68 -5.23811
rfingers 7.12502
rthumb 18.2167 -34.4051
lclavicle -1.86858e-014 1.59028e-015
lhumerus -30.6188 42.8543 69.3028
lradius 29.5177
lwrist -235.571
lhand -11.7333 5.37776
lfingers 7.12502
lthumb 14.314 34.8644
rfemur -170.105 -175.332 200.112
rtibia 36.9029
rfoot 157.428 163.704
rtoes 3.31184
lfemur -183.291 183.088 -193.495
ltibia 44.5612
lfoot -14.0827 35.189
ltoes 8.6674
1561
root 4.56515 16.5097 -0.114249 -14.8116 -73.6319 -7.12376
lowerback 35.8692 0.694346 -0.390078
upperback 8.71156 -0.169397 -0.169495
thorax -8.25159 -0.45485 0.144523
lowerneck -8.14515 -7.85521 -10.2888
upperneck -0.249138 -9.98795 12.7485
head 2.4361 -4.75258 4.9892
rclavicle 3.98563e-014 -7.95139e-016
rhumerus -22.2722 -13.1036 -83.8747
rradius 17.5974
rwrist 41.8138
rhand -7.89678 -5.27453
rfingers 7.12502
rthumb 18.0082 -34.4608
lclavicle 3.98563e-014 -7.95139e-016
lhumerus -30.5601 43.4322 69.2919
lradius 29.4077
lwrist -236.155
lhand -11.6923 5.49002
lfingers 7.12502
lthumb 14.3535 34.9738
rfemur -170.108 -175.351 200.299
rtibia 36.8876
rfoot 157.574 163.925
rtoes 3.13883
lfemur -183.208 183.099 -193.429
ltibia 44.7605
lfoot -14.4742 34.7637
ltoes 8.44592
1562
root 4.58639 16.5063 -0.139632 -14.5083 -73.9578 -7.5958
lowerback 35.9515 0.62237 -0.21953
upperback 8.74227 -0.208481 -0.163891
thorax -8.2469 -0.47851 0.0761152
lowerneck -8.33062 -7.81411 -10.2074
upperneck -0.071757 -9.93878 12.7299
head 2.50786 -4.71957 4.9651
rclavicle -1.81888e-014 -3.97569e-015
rhumerus -22.0657 -15.4981 -83.099
rradius 16.6059
rwrist 44.5635
rhand -8.11244 -5.29456
rfingers 7.12502
rthumb 17.8006 -34.4998
lclavicle -1.81888e-014 -3.97569e-015
lhumerus -30.4474 43.9606 69.3164
lradius 29.283
lwrist -236.692
lhand -11.6275 5.59953
lfingers 7.12502
lthumb 14.416 35.0789
rfemur -170.093 -175.416 200.526
rtibia 36.8745
rfoot 157.715 164.095
rtoes 2.90566
lfemur -183.106 183.024 -193.35
ltibia 44.972
lfoot -14.8307 34.1974
ltoes 8.53444
1563
root 4.60699 16.5026 -0.163775 -14.3311 -74.2795 -7.94958
lowerback 36.0475 0.558276 -0.0988311
upperback 8.77077 -0.256436 -0.164248
thorax -8.24962 -0.506146 0.0311453
lowerneck -8.51484 -7.76125 -10.0866
upperneck 0.11078 -9.8767 12.6741
head 2.5754 -4.68075 4.9246
rclavicle -5.74488e-014 1.47101e-014
rhumerus -21.9433 -18.1475 -82.2343
rradius 15.6791
rwrist 47.5809
rhand -8.34583 -5.29853
rfingers 7.12502
rthumb 17.5761 -34.5241
lclavicle -5.74488e-014 1.47101e-014
lhumerus -30.3675 44.56 69.2925
lradius 29.145
lwrist -237.265
lhand -11.5718 5.72145
lfingers 7.12502
lthumb 14.4696 35.197
rfemur -170.06 -175.51 200.722
rtibia 36.8669
rfoot 157.87 164.231
rtoes 2.79169
lfemur -182.979 182.89 -193.33
ltibia 45.1859
lfoot -15.1494 33.558
ltoes 8.84288
